<?xml version="1.0" encoding="utf-8"?>
<!-- Generator: Adobe Illustrator 13.0.0, SVG Export Plug-In . SVG Version: 6.00 Build 14948)  -->
<svg version="1.2" baseProfile="tiny" id="Page_1" xmlns="http://www.w3.org/2000/svg" xmlns:xlink="http://www.w3.org/1999/xlink"
	 x="0px" y="0px" width="542.37px" height="542.369px" viewBox="0 0 542.37 542.369" xml:space="preserve">
<g id="图层_1_1_">
	<path fill-rule="evenodd" fill="#000000" d="M271.186,0C420.549,0,542.37,121.821,542.37,271.183
		c0,149.365-121.82,271.186-271.184,271.186C121.822,542.369,0,420.548,0,271.183C0,121.821,121.822,0,271.186,0L271.186,0z
		 M271.95,6.112c145.576,0,264.311,118.733,264.311,264.309c0,145.577-118.734,264.309-264.311,264.309
		c-145.578,0-264.311-118.732-264.311-264.309C7.639,124.845,126.372,6.112,271.95,6.112L271.95,6.112z"/>
	<path fill-rule="evenodd" fill="#000000" d="M270.421,100.453c93.614,0,169.968,76.353,169.968,169.967
		c0,93.615-76.354,169.968-169.968,169.968c-93.615,0-169.968-76.354-169.968-169.968
		C100.453,176.806,176.807,100.453,270.421,100.453L270.421,100.453z M270.421,106.946c90.038,0,163.476,73.436,163.476,163.474
		c0,90.04-73.438,163.475-163.476,163.475c-90.039,0-163.475-73.436-163.475-163.475
		C106.947,180.382,180.382,106.946,270.421,106.946L270.421,106.946z"/>
	<path fill-rule="evenodd" fill="#000000" d="M220.381,306.397h-36.656l0,0c-0.006,0-0.014,0-0.02,0c-0.004,0-0.011,0-0.019,0
		c-0.006,0-0.009,0-0.017,0c-0.006,0-0.014,0-0.017,0c-0.008,0-0.014,0-0.021,0c-0.003,0-0.011,0-0.017,0c-0.007,0-0.011,0-0.017,0
		c-0.008,0-0.011,0-0.019,0c-0.006,0-0.014,0-0.017,0c-0.006,0-0.014,0-0.021,0c-0.003,0-0.009,0-0.017,0c-0.006,0-0.011,0-0.017,0
		c-0.008,0-0.014,0-0.017,0c-0.008,0-0.014,0-0.021,0c-0.003,0-0.011,0-0.017,0c-0.004,0-0.011,0-0.018,0c-0.097,0-0.194,0-0.291,0
		c-7.098,0.16-12.838,5.993-12.838,13.125c0,7.238,5.895,13.134,13.129,13.134c0.098,0,0.195-0.008,0.292-0.008v0.077h36.976h28.928
		l19.758-52.092l24.364,52.092h28.402h37.779v-0.077c0.023,0,0.049,0.008,0.072,0.008c7.23,0,13.127-5.896,13.127-13.134
		c0-7.229-5.896-13.125-13.127-13.125c-0.023,0-0.049,0-0.072,0h-37.463h-12.889l-18.197-43.436l-23.172-55.382l-9.027,25.661H259.1
		l-1.664,4.965l-9.15,26.007l-14.853,42.186H220.381L220.381,306.397z M243.461,182.566h-35.932h-1.208h-0.011v0.055
		c-6.143,0.618-10.971,5.834-10.971,12.132s4.828,11.512,10.971,12.125v0.673h1.796h33.145l9.308-24.985H243.461L243.461,182.566z
		 M295.495,207.552h0.115h36.854v-0.174c6.504-0.235,11.738-5.609,11.738-12.172c0-6.563-5.234-11.944-11.738-12.182v-0.458h-0.535
		h-36.113h-10.971L295.495,207.552L295.495,207.552z M214.033,280.633l17.651-47.393h-23.578v-0.063c-0.08,0-0.16,0.008-0.235,0.008
		c-20.836,0-37.828-16.999-37.828-37.834c0-20.307,16.156-36.972,36.277-37.792v-0.035h1.55h52.015l6.661-17.88l7.623,17.88h57.237
		h0.521v0.007c20.596,0.285,37.305,17.165,37.305,37.819c0,20.058-15.758,36.549-35.518,37.751v0.138h-27.273l20.203,47.393h32.773
		h0.514v0.006c21.457,0.272,38.871,17.854,38.871,39.377c0,21.323-17.102,38.78-38.287,39.363v0.264h-57.304h-22.755l-3.971-11.442
		l-4.386-12.673l-4.4,12.673l-3.956,11.442H238.63h-57.242v-0.298c-20.748-1.07-37.34-18.325-37.34-39.329
		c0-21.593,17.534-39.224,39.093-39.383l0,0h0.288H214.033L214.033,280.633z"/>
	<path fill="#000000" d="M232.964,401.859l0.863-4.079c2.03-0.38,3.99-1.02,5.884-1.92l4.199,0.89l-4.368,20.633l-4.546-0.962
		l3.43-16.206C236.638,400.975,234.817,401.525,232.964,401.859L232.964,401.859z M253.298,414.702l4.64,0.239
		c0.226,1.758,0.937,2.67,2.125,2.731c2.381,0.122,3.567-2.04,3.558-6.496c-1.243,0.889-2.651,1.253-4.237,1.095
		c-3.791-0.515-5.783-2.767-5.975-6.753c0.464-4.35,3.085-6.602,7.869-6.754c5.079,0.263,7.455,3.526,7.132,9.793
		c-0.115,8.349-2.907,12.338-8.376,11.979C255.352,420.297,253.111,418.347,253.298,414.702L253.298,414.702z M258.185,405.525
		c-0.123,2.381,0.808,3.619,2.793,3.723c1.665,0.086,2.635-1.056,2.919-3.429c-0.035-2.467-0.878-3.782-2.539-3.949
		C259.368,401.849,258.313,403.068,258.185,405.525L258.185,405.525z M278.008,415.061l4.507-0.398
		c0.386,1.64,1.333,2.435,2.844,2.378c1.894-0.243,2.788-1.84,2.687-4.78c-0.447-2.355-1.547-3.533-3.303-3.538
		c-1.26,0.189-2.062,1.062-2.4,2.603l-4.523,0.281l-0.498-12.395l12.82-1.134l0.262,2.964l-8.898,0.786l0.254,5.603
		c0.945-1.038,2.205-1.67,3.779-1.89c4.133-0.203,6.482,2.019,7.052,6.675c-0.085,4.475-2.452,7.036-7.1,7.688
		C280.967,420.144,278.471,418.525,278.008,415.061L278.008,415.061z M301.926,411.062l4.488-1.208
		c0.588,1.896,1.711,2.704,3.363,2.424c1.59-0.507,2.195-1.78,1.813-3.815c-0.693-2.282-2.643-2.953-5.843-2.009l-0.774-2.878
		c3.295-0.886,4.656-2.405,4.08-4.549c-0.549-1.749-1.643-2.439-3.273-2.084c-1.395,0.621-1.953,1.761-1.672,3.412l-4.488,1.208
		c-0.838-3.726,0.949-6.264,5.357-7.612c4.42-0.693,7.186,0.411,8.295,3.321c0.59,2.804-0.262,4.845-2.553,6.118
		c2.836,0.143,4.676,1.622,5.514,4.441c0.408,3.343-1.533,5.754-5.826,7.241C305.727,416.331,302.899,414.991,301.926,411.062
		L301.926,411.062z"/>
	<path fill-rule="evenodd" fill="#000000" d="M49.475,176.134c0.651-1.051,2.513-2.31,3.793-1.521
		c0.824,0.507,1.266,0.758,1.554,1.133c0.283,0.381,0.554,0.872,0.709,0.446c0.16-0.432,0.423-2.285,0.473-2.877
		c0.034-0.597,0.086-2.598-0.007-2.919c-0.088-0.327-0.136-2.848-1.208-3.344c-1.057-0.492-2.766-0.439-5.166,1.126
		c-2.108,1.384-2.534,2.127-3.687,3.877c-0.381,0.595-0.795,2.961-0.8,3.313c-0.006,0.352-0.106,2.024,0.631,2.756
		C47.313,179.198,48.811,177.2,49.475,176.134L49.475,176.134z"/>
	<path fill-rule="evenodd" fill="#000000" d="M111.533,96.445c0,0,1.906-1.738,2.999-1.042c0.552,0.354,3.607,2.715,6.554,4.107
		c2.962,1.398,5.819,1.821,6.419,2.316c1.206,0.983,0.683,3.191,0.45,3.65c-0.242,0.446-0.928,0.526-1.161,1.727
		c-0.234,1.203-1.324,1.385-0.654,3.945c0.679,2.573,0.907,4.566,2.608,5.39c1.702,0.823,5.086,4.409,6.194,5.717
		c1.119,1.316,5.255,2.48,8.021-0.288c1.638-1.652,2.99-1.855,4.067-3.352c1.379-1.933,0.509-3.442,1.995,0.212
		c0.908,2.239-1.926,9.076-3.502,10.576c-0.881,0.827-5.065,3.154-6.302,2.619c-1.17-0.492-8.286-7.813-8.298-7.863
		c-0.389-1.936-2.179-4.931-2.674-5.514c-0.495-0.583-5.051-5.503-5.373-6.474c-1.523-4.525-6.581-7.493-8.247-9.871
		c-0.607-0.869-1.979-3.797-2.209-4.222C112.178,97.642,111.533,96.445,111.533,96.445L111.533,96.445z"/>
	<path fill-rule="evenodd" fill="#000000" d="M138.913,94.796c1.491-0.904,3.841-4.765,4.266-6.769
		c0.435-1.995,1.164-5.2,2.475-7.176c1.303-1.987,4.049-4.319,5.37-4.819c2.429-0.918,5.148-0.257,4.511,2.953
		c-0.248,1.232-2.196,4.751-1.866,5.294c1.604,2.67,2.524,0.504,3.36,3.427c0.408,1.439,0.387,4.025,1.215,5.108
		c1.044,1.359,2.345,2.704,2.89,1.879c0.535-0.835,4.739-7.913,5.973-8.078c1.228-0.16,5.442-2.25,7.68,0.103
		c2.244,2.349,1.719,2.913,1.115,3.808c-0.615,0.883-4.168,4.319-6.915,4.983c-3.287,0.784-10.07,8.948-11.771,12.178
		c-0.961,1.798-2.746,3.513-3.646,3.776c-0.895,0.257-2.708,1.796-3.32,0.331c-1.557-3.654,3.541-6.075,5.09-9.697
		c0.173-0.388-4.556-10.498-5.454-11.119c-0.889-0.609-1.126-1.03-1.557-0.665c-0.437,0.371-1.042,1.125-1.042,1.125l-1.655,3.913
		c0,0-1.231,1.787-2.229,2.513c-1.004,0.732-3.332,1.205-3.332,1.205C137.878,100.147,134.588,97.383,138.913,94.796L138.913,94.796
		z"/>
	<path fill-rule="evenodd" fill="#000000" d="M209.425,51.18c0.903-0.343,3.779,0.805,5.543,0.368
		c2.332-0.59,4.202-1.183,6.269-2.028c6.238-2.527,10.282-4.536,16.159-7.686c2.778-1.49,6.475-0.014,6.469,1.392
		c-0.007,1.406-5.248,3.819-6.371,4.194c-1.132,0.378-8.225,5.426-8.884,6.062c-0.657,0.654-3.859,3.716-0.889,6.306
		c2.96,2.576,2.581,1.887,2.671,3.485c0.174,3.373-2.098,5.169-2.73,7.379c-0.795,2.807-1.024,4.697,4.53,2.93
		c1.905-0.597,6.05-1.927,10.485-3.768c1.336-0.563,2.75-1.035,4.157-0.257c1.807,1.014,5.302,0.665,5.943,3.101
		c0.983,3.737-0.415,4.709-1.732,5.235c-0.617,0.231-4.892,0.506-8.249,0.105c-5.075-0.611-11.695,1.575-11.695,1.575l-11.371,2.235
		l-10.197,3.536c0,0-7.672,3.036-9.788,1.93c-2.113-1.089-5.033-1.884-6.034-4.233c-1.001-2.347,2.282-2.837,2.917-2.933
		c0.637-0.094,13.784,0.335,19.905-3.614c6.119-3.967,5.56-10.611,5.033-11.937c-0.52-1.327-0.806-3.244-3.531-4.137
		c-2.735-0.892-7.775-5.671-7.775-5.671S208.522,51.521,209.425,51.18L209.425,51.18z"/>
	<path fill-rule="evenodd" fill="#000000" d="M326.118,21.75c0,0,1.246,1.949,2.107,4.211c0.875,2.25,0.867,5.888-0.117,7.771
		c-0.975,1.869-3.137,8.479-3.137,8.479c-0.295,0.997-3.193,7.409-0.969,7.458c1.711,0.051,2.703,0.119,3.391-1.067
		c0.701-1.201,3.242-2.249,4.314-2.465c0.846-0.174,18.117-6.618,25.363-9.93c1.01-0.472,0.246-2.518,0.664-3.081
		c0.422-0.548,2.055,0.361,2.055,0.361s3.332,3.225,1.947,6.354s-1.725,2.621-4.057,2.427c-6.156-0.481-4.24-0.026-8.859,1.393
		c-1.734,0.536-17.656,3.691-17.094,5.288s1.953,1.293,1.953,1.293s3.924,0.642,4.041,1.541c0.107,0.914,1.371,2.216-0.189,4.041
		c-1.555,1.826-7.418,4.727-9.393,6.404c-1.982,1.661-3.887,2.177-3.23,2.629c0.658,0.467,3.746,1.133,3.746,1.133
		s3.217,0.964,2.184,1.643c-1.029,0.68-2.49,0.001-3.605,1.117c-1.121,1.114-0.979,3.877-0.979,3.877s2-0.329,3.26-1.415
		c1.254-1.07,1.393-1.041,1.588-0.563c0.201,0.494,0.307,2.147-0.648,3.144c-0.941,0.984-5.764,4.191-5.973,5.175
		c-0.092,0.436-0.592-0.65-2.783,8.309c-0.904,3.697-0.277,7.029-0.289,7.163c-0.023,0.373-2.363,1.9-3.744-1.33
		c-1.383-3.23-6.314-2.796-6.314-2.796c-3.059,4.371-0.676,4.016-5.471,4.78c-5.474,0.868-7.493-5.606-7.493-5.606
		c-0.644-5.057,2.55-8.025,3.884-3.204c0.771,2.787,2.018,3.89,3.879,3.141c0.945-0.38,1.451-2.678,4.232-3.282
		c0.695-0.145,1.848,1.226,2.436,1.226c1.779-0.011,3.135,0.404,4.248-0.152c1.477-0.723,2.658-2.278,1.521-3.251
		c-1.129-0.974-3.998-1.414-4.844-3.067c-0.834-1.669-3.336-3.21-2.389-4.208c0.945-1,6.551-0.888,6.246-2.279
		c-0.309-1.394-1.889-3.804-0.803-4.018c1.082-0.23,3.213,0.208,2.195-1.346c-1.014-1.538-2.434-1.83-3.502-3.093
		c-1.076-1.265,0.865-2.043,2.424-1.721c1.564,0.321,4.709-1.266,4.709-1.266s12.102-6.647,10.262-8.13
		c-1.598-1.295-4.613-2.43-12.162-1.899c-0.391,0.026-1.721,1.097-2.141,1.115c-0.422,0.034-1.604-1.01-2.049-0.981
		c-3.943,0.337-8.203,0.955-13.42,2.962c-3.267,1.262-2.419,0.303-3.221,1.665c-1.498,2.545-4.781,1.432-4.837,1.375
		c-1.105-1.195-5.446-3.342-5.775-4.196c-0.671-1.769,0.237-2.292,3.135-1.982c2.901,0.295,12.747-0.065,15.735-0.929
		c2.988-0.866,7.779-0.771,8.836-2.41c1.352-2.093,2.148-5.994,2.895-10.025c0.746-4.03,1.43-8.195,0.957-10.633
		c-0.35-1.854,0.5-6.243,2.074-7.398C324.483,20.34,326.118,21.75,326.118,21.75L326.118,21.75z"/>
	<path fill-rule="evenodd" fill="#000000" d="M308.715,35.015c0.762,2.029,1.357,2.953,2.311,2.65
		c0.67-0.209,9.59-3.176,8.414-2.633c-1.559,0.736-4.959,3.208-7.049,5.241c-0.514,0.514-0.904,2.155-1.279,2.696
		c-1.105,1.63-1.811,2.075-3.238,1.856c-1.902-0.301-2.336-1.086-2.336-1.086c0.012-0.827-0.934-1.596-1.26-2.51
		c-0.729-1.994-1.133-4.176-0.578-5.768C304.37,33.531,307.973,33.049,308.715,35.015L308.715,35.015z"/>
	<path fill-rule="evenodd" fill="#000000" d="M331.227,33.506c-0.229,0.149-1.436,1.501-1.029,2.87
		c0.406,1.368-0.359,0.454,1.244,2.537c1.611,2.084,5.031,0.658,5.201,0.572l2.637-1.33c0,0,5.305-2.064,4.672-2.799
		c-0.639-0.72-7.676,0.701-8.643,0.592c-0.971-0.094-1.529-1.674-1.957-2.457C332.93,32.708,331.454,33.355,331.227,33.506
		L331.227,33.506z"/>
	<path fill-rule="evenodd" fill="#000000" d="M324.948,84.008c-0.008-0.289,3.773-1.489,4.436-0.19
		c0.672,1.287,3.719,3.877,3.16,6.587s-0.828,2.701-2.902,4.373c-2.074,1.673-3.443,4.185-4.957,4.523
		c-1.512,0.338-1.988,1.253-3.17,0.36c-1.191-0.895-0.123-0.615,0.639-1.53c1.441-1.758,1.346-2.608,1.623-3.624
		c0.27-1.017,0.941-2.193,0.869-5.214c-0.035-1.881,0.43-2.087-0.018-3.402C324.182,84.576,324.956,84.296,324.948,84.008
		L324.948,84.008z"/>
	<path fill-rule="evenodd" fill="#000000" d="M388.68,91.972c0,0-0.379,1.389,2.082,5.04c2.461,3.653,2.648,2.696,5.281,4.145
		c2.615,1.458,5.107,1.884,5.107,1.884c5.902-4.914,10.74-11.003,15.996-16.599l1.91-2.636c0,0,3.387-3.907,5.24-3.975
		c2.33-0.092,2.672,6.797,0.699,8.45c-1.977,1.672-17.707,16.596-16.365,18.157c1.354,1.549,15.279,7.75,15.414,7.85
		c2.346,1.753,2.635-1.698,3.395-1.13c0.832,0.622,4.764,5.771,5.234,8.355c0.486,2.574-0.027,1.275-1.297,1.241
		c-1.281-0.021-5.313-4.527-7.244-5.411c-1.93-0.884-18.043-8.301-19.203-7.495c-1.154,0.813-7.549,7.131-7.549,7.131
		s-7.697,8.036-12.023,8.131c-4.324,0.097-4.162,0.199-6.898-1.846c-1.17-0.875-1.563-2.282-2.547-3.337
		c-0.574-0.629-0.449-4.063-0.471-5.154c-0.018-1.845,1.002-3.076,5.785-3.626c2.053-0.24,4.178,1.089,6.184,0.577
		c1.557-0.391,3.063-0.483,4.391-1.183c3.057-1.623,5.592-3.593,4.346-4.165c-1.248-0.554-5.574-2.67-5.574-2.67
		s-3.504-2.978-4.211-4.244c-1.035-1.829-4.094-7.361-0.58-8.342C387.002,90.777,388.68,91.972,388.68,91.972L388.68,91.972z"/>
	<path fill-rule="evenodd" fill="#000000" d="M403.846,122.063c0.426,0.697,4.527,3.741,4.58,8.164
		c0.049,4.44,1.521,4.763-1.229,9.004c-2.75,4.24-4.504,5.122-6.547,4.949c-2.041-0.189-2.625-1.979-2.816-3.298
		c-0.924-6.429,1.842-6.037,2.105-10.979c0.107-1.913,0.332-6.724,1.662-8.063C402.946,120.494,403.43,121.354,403.846,122.063
		L403.846,122.063z"/>
	<path fill-rule="evenodd" fill="#000000" d="M481.983,135.866c-0.018-0.024-0.098,1.527-1.158,2.856
		c-0.822,1.037-3.375,4.239-3.676,4.747c-1.51,2.556-0.471,0.787-1.793,2.988c-0.822,1.374-2.859,2.818-3.932,2.834
		c-1.074,0.017-1.381,0.24-1.762-1.746c-0.375-1.982,0.275-3.607,1.301-5.709c1.023-2.103,8.846-7.898,9.918-6.897
		C481.674,135.028,481.983,135.866,481.983,135.866L481.983,135.866z"/>
	<path fill-rule="evenodd" fill="#000000" d="M482.393,151.255c0.723,1.587,0.76,2.342,1.463,3.395
		c2.531,3.85,4.639,2.61,8.41,4.626c2.406,1.292,5.668,5.542,5.768,5.667c2.967,3.702,0.16,6.547-1.471,6.987
		c-2.338,0.638-5.76-3.004-6.713-3.153c-0.85-0.139-9.482-6.786-9.215-5.748c0.246,1.015,3.264,5.077,3.311,8.044
		c0.068,4.764-0.031,6.369-2.715,8.756c-2.691,2.399-6.826,5.097-10.082,2.998c-1.826-1.18-3.102-3.519-4.418-4.691
		c-1.02-0.917-2.314-0.863-2.367-0.617c-0.143,0.587-1.584,1.189-3.664,1.164c-2.082-0.024-2.68,0.115-4.658-0.055
		c-1.977-0.171-1.58,0.306-2.137,1.713c-0.221,0.53-0.176,1.589-0.322,2.329c-0.262,1.247-0.639,2.171-0.639,2.171
		s1.514,0.731,2.102,1.464c0.592,0.738,2.793,1.973,3.334,4.926c0.543,2.957,1.434,4.051,0.398,4.882
		c-1.035,0.829-1.758,1.046-3.127,0.694c-1.377-0.345-2.277-1.331-2.107-2.316c0.184-0.991-2.248-6.503-3.174-6.006
		c-0.93,0.509-4.109,3.104-5.191,3.797c-2.432,1.561-8.406,5.678-9.893-0.403c-0.145-0.592,0.584-1.412,0.012-2.756
		c-1.252-2.958-3.557-6.856-4.24-8.733c-0.73-2.012-0.447-3.956,0.371-3.17c3.414,3.239,5.771,9.228,11.465,9.613
		c1.664,0.114,4.092-1.06,4-2.67c-0.057-0.994-3.365-3.002-5.459-4.711c-1.26-1.021-1.777-1.275-2.152-2.138
		c-1.025-2.321-2.465-5.748-1.627-6.057c0.848-0.318,1.293,0.357,2.936,2.544c1.645,2.192,7.455,7.243,8.469,7.761
		c1.021,0.511,1.846,0.34,2.555-2.41c0.715-2.744-0.516-2.473,0.701-3.213c0.211-0.129,0.838-0.625,1.287-0.654
		c0.494-0.032,0.869,0.398,1.479,0.374c1.881-0.072,4.082,0.202,4.801-0.374c1.18-0.946,2.539-2.608,1.859-4.362
		c-0.676-1.749-3.914-3.216-5.695-3.356c-1.783-0.145-3.688,0.466-4.178-0.597c-0.486-1.059,0.934-0.426,2.51-1.326
		c1.582-0.896,2.098-1.137,2.83-0.99c0.717,0.149,5.117,0.67,6.709,3.25c0.994,1.613,1.861,4.129,1.881,6.198
		c0,0.669,1.25,0.008,1.512,0.058c0.713,0.145,4.916,5.468,6.707,4.993c1.805-0.479,4.752-1.336,6.205-4.065
		c2.479-4.687-0.922-9.659-4.771-11.928c-4.588-2.724-16.945-4.568-16.945-4.568s-4.553,0.034-8.982,0.986
		c-3.574,0.769-6.484,4.563-9.09,1.309c-1.35-1.685,1.949-5.642,3.547-6.535c0.504-0.277,2.088-0.579,2.574-1.937
		c0.486-1.356,0.393-3.007,1.268-2.502c0.891,0.5,2.457,2.731,5.117,3.064c10.539,1.309,12.094,2.559,22.428,6.716
		c1.26,0.511,1.268-0.638,3.492,0.901c2.172,1.512,5.93,2.39,7.094,2.37c1.42-0.035,1.439-2.035-0.23-3.019
		c-1.063-0.637-2.055-0.423-3.201-1.56c-1.143-1.132-1.621-1.866-1.771-2.446C480.249,154.099,481.717,149.781,482.393,151.255
		L482.393,151.255z"/>
	<path fill-rule="evenodd" fill="#000000" d="M58.503,183.152c0.275-1.706,0.949-3.845,1.4-5.036
		c0.447-1.184,1.973-4.81,5.453-5.314c3.491-0.495,4.549,0.849,5.569,2.585c2.581,4.407-0.68,3.528-0.345,7.212
		c0.354,3.91,3.131,8.464,7.882,13.367c0.74,0.753,0.45-0.265,0.826-1.13c0.38-0.871-0.333-6.843-1.094-8.998
		c-0.777-2.158-1.965-5.319-3.148-6.69c-1.194-1.38-2.343-1.249-2.237-1.843c0.09-0.597,2.783-10.579,1.33-13.338
		c-1.443-2.75-3.885-4.38-4.849-5.266c-0.964-0.885-9.063-7.827-9.796-8.841c-0.734-1.014-4.942-4.734-4.749-5.992
		c0.194-1.257-0.302-2.339,0.125-2.484c0.432-0.152,0.799-1.098,1.446-1.196c0.631-0.103,0.633-1.027,2.781,2.402
		s3.595,2.556,3.625,2.818c0.036,0.277,1.687-0.602,5.321,1.49c3.649,2.095,4.825,3.267,7.097,8.409
		c1.53,3.471,1.626,5.884,2.905,7.688c0.675,0.949,1.45,1.795,2.408,2.666c2.791,2.53,4.347,3.73,4.851,3.811
		c0.504,0.08,1.42-0.035,0.887-1.578c-0.102-0.263-0.127-0.669-0.145-0.948c-0.218-4.866,0.82-9.493-0.241-11.894
		c-0.471-1.089-3.312-4.363-4.27-4.888c-0.947-0.514-3.491-2.847-3.226-3.526c0.231-0.612,1.424-2.506,1.638-3.673
		c0.487-2.573-0.443-4.77-2.732-6.524c-0.761-0.586-2.222-1.492-3.177-1.491c-0.939,0.006-2.91-0.489-2.533-1.793
		c0.377-1.305,0.563-3.796,1.296-4.258c0.745-0.452,3.321-1.895,4.728-2.005c2.318-0.172,4.559,1.966,5.158,4.44
		c0.461,1.933-0.438,4.124-0.597,5.315c-0.281,2.15-0.409,5.586,0.523,6.328c0.943,0.749,3.399,2.409,4.154,3.21
		c2.388,2.53,2.907,1.624,3.305,1.538c0.394-0.082,0.57,0.205,1.235-1.969c0.867-2.867,0.852-7.158,0.378-11.082
		c-0.134-1.168-0.679-1.867-0.863-2.856c-0.189-0.984-0.018-2.259,0.364-2.625c1.861-1.764,0.876-1.585,1.442-1.813
		c0.562-0.223,3.707-1.919,4.563,1.823c0.86,3.734-0.856,12.303,0.47,13.541c1.311,1.233,6.503,5.398,7.042,7.347
		c0.546,1.966,3.414,5.436,5.24,6.989c0.779,0.655,4.808,6.469,10.283,7.881c7.857,2.012,7.517,5.783,7.41,5.872
		c-1.415,1.064-5.49,3.377-7.415,1.949c-1.909-1.426-2.972-1.793-3.626-2.882c-0.662-1.104-11.034-8.369-11.746-9.502
		c-2.092-3.339-10.882-9.641-5.968-1.437c1.536,2.541,3.047,4.236,2.597,5.885c-0.445,1.644-1.542,2.77-2.872,3.244
		c-1.324,0.467-4.035-1.403-5.847-2.743c-1.812-1.339-2.849-5.5-3.626-5.604c-0.778-0.104-1.57-0.562-1.405,2.713
		c0.165,3.275,1.514,9.461,3.678,11.557c2.164,2.095,1.826,1.899,4.807,3.334c1.681,0.815,2.73,1.686,3.56,1.978
		c2,0.71,10.304,3.107,10.946,4.212c0.933,1.594,1.134,0.994,0.258,1.726c-0.88,0.74-5.189,1.272-6.129,1.001
		c-0.944-0.264-7.356-2.456-8.097-1.524s-1.516,1.077-1.292,2.591c0.235,1.526-0.644,1.78-0.644,1.78s-2.343,2.233-5.309,0.544
		c-2.965-1.688-3.792-3.436-3.792-3.436c0.473-3.061,1.603-10.454,0.342-13.041c-0.529-1.063-4.672-3.99-5.341-3.862
		c-0.686,0.125-1.258,1.098-0.805,2.695c0.453,1.598-0.084,3.379-0.971,4.011c-0.876,0.642-2.115,0.701-2.1,2.135
		c0.011,1.438,1.542,3.708,1.542,3.708s2.174,3.744,3.264,5.739c1.091,1.993,3.332,5.745,4.748,8.044
		c1.417,2.299,5.175,4.81,5.193,6.355c0.023,1.538-0.051,2.369-0.197,2.784c-1.001,2.805-7.385,2.119-10.161,0.84
		c-0.63-0.291-3.56-3.545-4.242-4.023c-0.227-0.154,0.657-1.888-0.45-4.068c-2.099-4.162-6.963-10.191-9.157-11.651
		c-3.338-2.233-5.813,1.849-7.546,2.001C55.36,188.259,58.209,184.952,58.503,183.152L58.503,183.152z M93.815,179.17
		c0.531-0.669,1.3,0.071,2.479,1.007c1.168,0.929,2.319,1.716,1.789,2.384c-0.531,0.669-1.93,0.446-3.098-0.483
		C93.805,181.141,93.284,179.838,93.815,179.17L93.815,179.17z M67.346,153.079c-0.995-0.661-3.42-2.59-3.432-3.36
		c-0.022-0.778-0.876-1.457-0.82-2.172c0.056-0.717,1.382-1.578,4.688,0.674c3.304,2.251,4.5,4.091,4.672,6.134
		C74.338,161.25,69.004,154.197,67.346,153.079L67.346,153.079z"/>
	<path fill="#000000" d="M69.292,283.86l-0.692-5.82c-0.447-1.228-2.387-1.995-5.799-2.309l-0.104-0.874l6.872-0.313l1.503,12.652
		l-25.44-8.559l0.933,7.849c0.712,0.809,2.485,1.545,5.331,2.221l0.103,0.869l-6.47-0.172l-1.677-14.111L69.292,283.86
		L69.292,283.86z M70.044,295.3c0.864-0.357,1.21-0.965,1.044-1.824l0.903-0.16l1.112,5.754l-0.903,0.16
		c-0.222-1.148-0.75-1.754-1.587-1.801l-9.758,1.733l1.364,7.055l9.604-1.707c0.865-0.355,1.194-1.056,0.989-2.112l0.903-0.159
		l1.111,5.753l-0.902,0.16c-0.186-0.957-0.695-1.465-1.532-1.513l-20.259,3.601c-1.168,0.404-1.658,1.089-1.473,2.047l-0.896,0.158
		l-1.112-5.752l0.896-0.16c0.204,1.055,0.83,1.588,1.866,1.605l9.752-1.732l-1.363-7.057l-10.054,1.788
		c-0.764,0.333-1.036,1.079-0.814,2.228l-0.896,0.16l-1.113-5.754l0.897-0.158c0.166,0.857,0.671,1.314,1.51,1.369L70.044,295.3
		L70.044,295.3z M73.356,326.829c2.392-1.24,3.706-2.354,3.952-3.328l-1.673-5.781l-9.557,2.541
		c0.678,2.348,1.195,4.135,1.548,5.357c0.748,0.408,2.131,0.45,4.149,0.113l0.245,0.848l-8.823,2.348l-0.246-0.85
		c1.71-0.655,2.759-1.394,3.159-2.207c-0.652-2.256-1.155-3.996-1.509-5.217l-9.414,2.504c-0.796,0.517-1.038,1.338-0.712,2.464
		c0.951,3.292,1.867,5.075,2.736,5.351c0.871,0.273,2.369,0.433,4.497,0.477l-0.051,0.92l-6.693,0.414l-3.875-13.396l0.879-0.234
		c0.271,0.939,0.999,1.607,2.167,2.003l19.856-5.278c0.971-0.661,1.28-1.605,0.927-2.827l0.878-0.233l3.712,12.835l-5.909,2.026
		L73.356,326.829L73.356,326.829z M58.209,343.156c0.222-0.856,0.615-1.401,1.175-1.644c0.56-0.242,1.124-0.25,1.688-0.029
		c0.567,0.225,0.975,0.654,1.212,1.298c0.237,0.64,0.167,1.181-0.216,1.622c-0.376,0.438-0.788,0.711-1.234,0.811
		c-0.453,0.101-0.548,0.497-0.293,1.186c0.254,0.688,1.231,0.848,2.934,0.482l18.416-6.256c0.791-0.479,0.82-1.727,0.072-3.752
		l0.859-0.293l3.465,9.384l-0.859,0.292c-0.851-2.303-1.696-3.412-2.53-3.334l-15.827,5.373c-3.039,0.826-5.113,0.988-6.219,0.483
		c-1.106-0.507-1.876-1.358-2.317-2.554C58.092,345.031,57.984,344.009,58.209,343.156L58.209,343.156z M90.364,360.737
		l-19.029,8.315c-0.84,0.58-0.76,1.938,0.253,4.069l-0.83,0.363l-4.24-8.922l0.83-0.363c1.013,2.13,1.934,3.122,2.762,2.979
		l19.029-8.314c0.932-0.627,0.894-2.004-0.119-4.135l0.829-0.362l4.24,8.923l-0.829,0.362
		C92.248,361.521,91.278,360.552,90.364,360.737L90.364,360.737z M82.688,390.45c0.391-0.328,0.963-0.804,1.699-1.433
		c0.746-0.626,1.748-1.45,3.015-2.473l-2.555-4.333l-5.534,1.323c-1.036,0.225-1.363,0.963-0.979,2.21l-0.793,0.431l-2.406-4.077
		l0.794-0.43c0.543,0.717,1.944,0.911,4.204,0.581l22.062-5.41l-16.501,14.834c-1.167,1.193-1.804,1.99-1.919,2.392
		c-0.116,0.4-0.027,0.854,0.274,1.366l-0.794,0.429l-3.159-5.353l0.793-0.431c0.25,0.425,0.518,0.674,0.793,0.746
		C81.96,390.902,82.295,390.771,82.688,390.45L82.688,390.45z M88.18,385.785l7.185-6.252l-9.513,2.305L88.18,385.785L88.18,385.785
		z M105.981,390.694l0.959-1.226c-0.082-0.431-0.421-1.038-1.029-1.826l0.734-0.52l2.726,3.534l-8.868,16.307l11.779-8.357
		c0.776-0.8,0.834-1.626,0.169-2.49l0.732-0.519l3.27,4.235l-0.733,0.521c-0.728-0.944-1.523-1.228-2.375-0.863L94.445,412.9
		l10.635-19.93l-14.72,10.446c-0.696,0.735-0.688,1.575,0.042,2.518l-0.734,0.521l-3.176-4.117l0.732-0.52
		c0.604,0.782,1.339,0.992,2.192,0.627L105.981,390.694L105.981,390.694z M123.478,407.711c1.032,0.749,1.724,1.463,2.078,2.139
		c0.354,0.684,0.558,1.453,0.608,2.319c0.055,0.87,0.172,1.288,0.354,1.267c0.182-0.029,0.688-0.394,1.528-1.104l0.504,0.547
		c-0.839,0.711-1.731,1.468-2.687,2.279c-0.951,0.808-2.122,1.934-3.509,3.37l-0.505-0.548c2.132-2.985,3.21-4.909,3.233-5.771
		c0.018-0.866-0.357-1.715-1.133-2.556c-0.778-0.843-2.342-0.917-4.692-0.224c-2.352,0.694-4.78,2.104-7.297,4.24
		c-2.516,2.135-4.387,4.339-5.616,6.615c-1.226,2.283-1.385,3.91-0.475,4.897c0.911,0.986,1.784,1.489,2.613,1.501
		c0.824,0.019,2.878-1.365,6.155-4.146c0.473-0.666,0.378-1.362-0.299-2.097l0.683-0.579l3.944,4.273l-0.683,0.58
		c-0.673-0.729-1.425-0.875-2.242-0.439l-4.917,4.171c-2.315,0.139-4.337-0.649-6.063-2.378c-1.731-1.726-2.155-3.909-1.261-6.551
		c0.888-2.646,2.799-5.211,5.736-7.702c2.932-2.487,5.73-3.986,8.393-4.485C120.595,406.83,122.441,406.955,123.478,407.711
		L123.478,407.711z M143.522,447.925c-1.894,2.048-3.68,3.439-5.359,4.173c-1.678,0.734-3.331,0.438-4.961-0.889
		c-1.641-1.324-2.402-2.773-2.293-4.355c0.113-1.578,0.925-3.475,2.438-5.684l9.289-11.607c0.457-0.899,0.286-1.64-0.524-2.236
		l0.554-0.693l5.09,3.745l-0.555,0.693c-0.889-0.655-1.666-0.73-2.322-0.229l-9.661,12.074c-1.28,1.766-2.02,3.283-2.203,4.559
		c-0.192,1.276,0.283,2.333,1.409,3.162c1.132,0.832,2.29,0.944,3.475,0.345c1.19-0.604,2.641-1.812,4.347-3.627l9.202-11.498
		c0.395-0.811,0.113-1.578-0.857-2.292l0.554-0.693l4.604,3.388l-0.555,0.692c-1.049-0.772-1.968-0.834-2.75-0.174L143.522,447.925
		L143.522,447.925z M160.386,442.483l0.438-1.472c-0.238-0.375-0.78-0.824-1.642-1.352l0.489-0.737l3.867,2.362l-2.186,18.271
		l7.873-11.849c0.427-1.014,0.173-1.806-0.772-2.383l0.49-0.736l4.636,2.831l-0.489,0.737c-1.033-0.631-1.881-0.622-2.541,0.011
		l-12.632,19.013l2.481-22.26l-9.84,14.81c-0.376,0.926-0.054,1.707,0.98,2.338l-0.491,0.738l-4.504-2.751l0.49-0.737
		c0.857,0.521,1.621,0.465,2.281-0.169L160.386,442.483L160.386,442.483z M183.914,455.24l-9.002,18.098
		c-0.255,0.962,0.717,1.954,2.921,2.963l-0.393,0.789l-9.229-4.222l0.393-0.788c2.204,1.008,3.575,1.198,4.113,0.578l9.002-18.098
		c0.295-1.054-0.659-2.086-2.862-3.093l0.392-0.791l9.229,4.222l-0.392,0.789C185.882,454.679,184.489,454.534,183.914,455.24
		L183.914,455.24z M205.83,464.693c0.708-1.317,0.526-2.153-0.531-2.512l0.305-0.824l5.04,1.711l-0.305,0.825
		c-1.153-0.393-1.925-0.344-2.319,0.146l-14.051,20.072l1.919-21.867c0.135-2.127-0.275-3.353-1.234-3.677l0.305-0.825l6.042,2.052
		l-0.305,0.825c-1.437-0.489-2.253,0.115-2.445,1.812l-1.61,15.757L205.83,464.693L205.83,464.693z M226.398,473.757
		c0.077-2.605-0.272-4.253-1.027-4.943l-6.06-1.503l-2.482,9.209c2.458,0.608,4.331,1.073,5.611,1.392
		c0.744-0.417,1.473-1.544,2.179-3.39l0.889,0.221l-2.293,8.5l-0.889-0.221c0.263-1.745,0.12-2.986-0.416-3.728
		c-2.364-0.585-4.187-1.037-5.464-1.355l-2.447,9.07c0.069,0.92,0.69,1.531,1.869,1.824c3.45,0.854,5.52,0.988,6.202,0.402
		c0.683-0.586,1.575-1.752,2.679-3.497l0.806,0.503l-2.975,5.765l-14.035-3.479l0.228-0.848c0.984,0.245,1.952-0.024,2.893-0.798
		l5.16-19.129c-0.112-1.137-0.809-1.865-2.09-2.183l0.229-0.846l13.449,3.335l-1.126,5.92L226.398,473.757L226.398,473.757z
		 M236.995,484.169l-1.284,8.252c0.049,0.993,0.681,1.581,1.885,1.754l-0.135,0.865l-6.337-0.909l0.134-0.864
		c1.109,0.16,1.828-0.186,2.169-1.021l3.113-19.979c-0.071-0.894-0.653-1.428-1.761-1.586l0.134-0.864l6.641,0.95
		c2.083,0.495,3.525,1.295,4.334,2.396c0.804,1.1,1.064,2.597,0.772,4.473c-0.294,1.884-0.951,3.267-1.966,4.159
		c-1.009,0.896-1.681,1.411-2.015,1.561l2.032,8.728c0.504,2.047,1.356,3.205,2.547,3.478l-0.135,0.864l-4.374-0.626L239.953,484
		C238.342,483.77,237.358,483.831,236.995,484.169L236.995,484.169z M243.261,473.677c-0.486-0.858-1.275-1.37-2.382-1.528
		c-1.109-0.159-1.802-0.012-2.078,0.441l-1.354,8.684c0.109,0.608,0.67,0.985,1.675,1.129c1.107,0.16,2.053-0.122,2.832-0.85
		c0.785-0.728,1.321-2.007,1.607-3.842C243.846,475.876,243.746,474.535,243.261,473.677L243.261,473.677z M267.567,496.038
		c-1.356,1.277-2.846,1.901-4.474,1.861c-1.627-0.04-2.918-0.266-3.876-0.685c-0.954-0.41-1.661-0.771-2.107-1.078
		c-0.447-0.303-0.741,0.176-0.879,1.441l-0.918-0.023l0.22-8.047l0.918,0.023c0.052,1.856,0.519,3.405,1.396,4.65
		c0.884,1.24,2.112,1.885,3.693,1.923c1.577,0.04,2.806-0.374,3.694-1.225c0.891-0.859,1.352-2.015,1.392-3.481
		c0.04-1.461-0.74-2.725-2.339-3.79c-1.6-1.063-2.897-1.952-3.895-2.664c-0.997-0.706-1.992-1.461-2.993-2.267
		c-0.995-0.808-1.494-2.139-1.494-3.993c-0.001-1.854,0.625-3.352,1.881-4.494c1.25-1.137,2.613-1.715,4.093-1.721
		c1.472-0.013,2.563,0.132,3.271,0.444c0.702,0.313,1.329,0.67,1.879,1.07c0.549,0.409,0.891-0.171,1.037-1.729l0.918,0.024
		l-0.223,8.19l-0.918-0.025c-0.737-2.848-1.354-4.618-1.843-5.311c-0.489-0.7-1.442-1.086-2.867-1.172s-2.555,0.28-3.392,1.083
		c-0.835,0.809-1.267,1.849-1.303,3.116c-0.034,1.267,0.825,2.488,2.572,3.655c1.746,1.163,3.078,2.027,3.974,2.587
		c0.904,0.561,1.924,1.34,3.069,2.345c1.141,1.003,1.686,2.483,1.633,4.433C269.633,493.135,268.931,494.754,267.567,496.038
		L267.567,496.038z M285.43,474.996l1.275,20.015c0.266,0.96,1.615,1.377,4.053,1.232l0.057,0.872l-10.207,0.6l-0.054-0.873
		c2.437-0.144,3.731-0.612,3.89-1.404l-1.277-20.015c-0.275-1.059-1.629-1.519-4.067-1.375l-0.056-0.874l10.205-0.599l0.057,0.874
		C286.868,473.592,285.576,474.112,285.43,474.996L285.43,474.996z M310.032,471.479c-2.416,0.347-3.686,0.781-3.809,1.291
		l3.111,19.975c0.32,0.743,1.289,1.001,2.898,0.771l0.135,0.863l-7.697,1.104l-0.133-0.866c1.609-0.23,2.443-0.798,2.514-1.691
		l-3.09-19.832c-0.281-0.452-1.125-0.583-2.529-0.383c-1.195,0.273-1.959,0.653-2.291,1.143c-0.338,0.498-0.517,1.678-0.531,3.556
		l-0.903,0.13l-0.599-5.831l15.393-2.205l1.207,5.744l-0.904,0.128C311.838,473.146,310.913,471.852,310.032,471.479
		L310.032,471.479z M327.776,490.583c1.09-0.252,1.652-0.733,1.682-1.449l-2.066-8.251l-6.49-10.245
		c-0.707-1.142-1.699-1.569-2.99-1.271l-0.213-0.851l6.238-1.437l0.213,0.851c-0.988,0.228-1.207,0.83-0.646,1.808l5.205,8.883
		l1.469-10.421c0.037-1.114-0.588-1.521-1.873-1.227l-0.213-0.849l5.346-1.232l0.211,0.851c-1.189,0.274-1.836,0.828-1.943,1.655
		l-2.088,12.972l2.029,8.113c0.395,0.712,1.18,0.936,2.363,0.665l0.213,0.849l-6.232,1.435L327.776,490.583L327.776,490.583z
		 M354.471,461.706c0.246-2.632,0.906-4.347,1.99-5.149s2.307-1.287,3.666-1.455c1.357-0.168,3.121,0.585,5.275,2.263
		c2.156,1.678,3.904,4.074,5.248,7.185c1.344,3.109,1.932,6.119,1.762,9.039s-1.48,4.866-3.922,5.837
		c-2.449,0.972-4.779,0.472-7.01-1.495c-2.227-1.968-4.012-4.504-5.355-7.613C354.782,467.208,354.233,464.338,354.471,461.706
		L354.471,461.706z M358.948,469.196c1.344,3.108,2.791,5.434,4.342,6.987c1.551,1.548,2.729,2.298,3.529,2.242
		c0.801-0.055,1.504-0.335,2.111-0.839c0.613-0.507,0.916-1.845,0.912-4.007c0.002-2.169-0.664-4.804-2.008-7.913
		c-1.344-3.11-2.859-5.523-4.533-7.23c-1.672-1.715-3.217-2.29-4.625-1.73c-1.414,0.56-2.053,2.004-1.928,4.333
		C356.872,463.362,357.604,466.087,358.948,469.196L358.948,469.196z M385.042,455.354c0.432-0.662,0.248-1.903-0.539-3.713
		l0.803-0.416l4.293,7.585l-0.801,0.417c-1.203-1.704-2.117-2.614-2.76-2.727l-5.77,3.004l5.029,8.879
		c0.658,0.546,1.723,0.489,3.201-0.168l0.436,0.77l-6.84,3.559l-0.434-0.768c1.162-0.604,1.799-1.221,1.91-1.833l-10.119-17.875
		c-0.855-0.891-1.902-1.014-3.156-0.361l-0.434-0.768l13.814-7.193l3.182,5.001l-0.807,0.42c-1.607-1.606-2.912-2.59-3.93-2.949
		l-7.24,3.77l4.66,8.231L385.042,455.354L385.042,455.354z M410.981,427.188c-1.938,1.426-2.828,2.396-2.678,2.901l12.82,16.021
		c0.656,0.501,1.635,0.276,2.926-0.674l0.555,0.693l-6.174,4.544l-0.555-0.693c1.291-0.951,1.734-1.835,1.344-2.65l-12.73-15.908
		c-0.475-0.266-1.279,0.013-2.404,0.842c-0.91,0.793-1.385,1.48-1.428,2.065c-0.043,0.591,0.398,1.705,1.334,3.355l-0.725,0.532
		l-3.473-4.821l12.348-9.086l3.959,4.466l-0.725,0.53C413.405,427.805,411.94,427.104,410.981,427.188L410.981,427.188z
		 M429.102,416.763c-2.291-1.405-3.943-1.966-4.947-1.702l-4.465,4.208l6.951,6.782c1.813-1.707,3.191-3.007,4.135-3.896
		c0.012-0.826-0.621-2.006-1.908-3.536l0.656-0.617l6.418,6.264l-0.656,0.616c-1.426-1.115-2.609-1.636-3.545-1.578
		c-1.74,1.642-3.084,2.905-4.027,3.795l6.848,6.68c0.857,0.418,1.725,0.223,2.594-0.596c2.539-2.395,3.725-4.027,3.553-4.891
		c-0.172-0.861-0.754-2.196-1.746-4.002l0.865-0.403l3.623,5.414l-10.342,9.744l-0.639-0.625c0.725-0.683,0.982-1.616,0.775-2.788
		l-14.441-14.094c-1.074-0.493-2.084-0.295-3.027,0.594l-0.639-0.623l9.908-9.337l4.711,3.975L429.102,416.763L429.102,416.763z
		 M439.262,415.701c-2.744-2.018-4.625-4.355-5.645-7.01c-1.014-2.652-1.205-4.577-0.568-5.772c0.629-1.196,1.227-2.017,1.779-2.469
		c0.559-0.454,1.229-0.819,2.027-1.089c0.797-0.28,1.428-0.462,1.881-0.554c0.459-0.094,0.008-0.647-1.367-1.658l0.557-0.693
		c0.811,0.597,1.734,1.278,2.783,2.049c1.055,0.776,2.547,1.63,4.492,2.565l-0.436,0.789c-4.096-1.297-6.656-1.827-7.674-1.594
		c-1.023,0.232-1.883,0.867-2.574,1.894c-0.689,1.027-0.475,2.635,0.662,4.824c1.137,2.183,3.037,4.258,5.703,6.219
		c2.66,1.958,5.23,3.202,7.693,3.724c2.469,0.526,4.236,0.165,5.291-1.081c1.063-1.247,1.486-2.535,1.27-3.867
		c-0.225-1.33-0.793-2.702-1.713-4.117l1.045-0.341c1.293,2.548,2,4.517,2.115,5.894c0.119,1.378-0.557,2.817-2.018,4.325
		c-1.459,1.506-3.691,2.052-6.688,1.627C444.877,418.942,442.01,417.724,439.262,415.701L439.262,415.701z M444.745,392.252
		c-0.891-0.289-1.572-0.06-2.047,0.687l-0.783-0.46l3.188-4.989l0.783,0.46c-0.637,0.996-0.668,1.784-0.078,2.356l8.463,4.972
		l3.91-6.116l-8.33-4.895c-0.893-0.29-1.623,0.019-2.211,0.934l-0.781-0.458l3.188-4.989l0.785,0.46
		c-0.533,0.829-0.508,1.533,0.08,2.105l17.57,10.325c1.148,0.447,1.99,0.253,2.521-0.577l0.777,0.457l-3.188,4.989l-0.779-0.457
		c0.586-0.915,0.49-1.712-0.266-2.39l-8.457-4.97l-3.91,6.116l8.719,5.122c0.799,0.245,1.523-0.135,2.16-1.132l0.775,0.457
		l-3.186,4.989l-0.779-0.457c0.477-0.746,0.42-1.409-0.166-1.987L444.745,392.252L444.745,392.252z M455.182,374.422l-1.576-0.237
		c-0.359,0.272-0.758,0.843-1.199,1.728l-0.822-0.375l1.975-3.969l19.178-0.146l-13.225-6.051c-1.102-0.28-1.891,0.057-2.373,1.027
		l-0.822-0.377l2.367-4.758l0.82,0.376c-0.525,1.06-0.414,1.866,0.322,2.418l21.219,9.705l-23.342,0.351l16.527,7.56
		c1.004,0.246,1.775-0.155,2.301-1.217l0.824,0.377l-2.299,4.622l-0.822-0.377c0.436-0.878,0.283-1.6-0.453-2.15L455.182,374.422
		L455.182,374.422z M464.26,356.542c-1.877-1.936-2.764-3.553-2.66-4.865c0.104-1.309,0.543-2.504,1.324-3.585
		c0.779-1.079,2.541-1.831,5.285-2.245c2.744-0.412,5.77-0.056,9.078,1.068c3.307,1.125,6.035,2.72,8.186,4.793
		c2.148,2.074,2.781,4.311,1.898,6.699c-0.885,2.396-2.832,3.723-5.85,3.998c-3.016,0.27-6.174-0.156-9.482-1.279
		C468.729,360.003,466.139,358.472,464.26,356.542L464.26,356.542z M473.059,358.364c3.307,1.125,6.078,1.647,8.32,1.582
		c2.236-0.07,3.605-0.406,4.1-1.016c0.494-0.605,0.748-1.295,0.762-2.066c0.018-0.774-0.814-1.887-2.492-3.329
		c-1.682-1.454-4.17-2.741-7.479-3.865c-3.309-1.122-6.193-1.658-8.637-1.607c-2.447,0.044-3.928,0.76-4.438,2.137
		c-0.51,1.384,0.182,2.804,2.068,4.274C467.149,355.94,469.75,357.241,473.059,358.364L473.059,358.364z M470.182,333.96
		l19.266,5.123c1.133,0.102,1.971-0.79,2.514-2.668l0.777-2.684c0.158-1.273-1.338-3.039-4.49-5.296l0.244-0.843l6.57,3.568
		l-3.875,13.4l-0.879-0.233c0.436-1.504,0.184-2.485-0.74-2.931l-20.152-5.359c-0.932-0.046-1.621,0.684-2.057,2.188l-0.879-0.232
		l2.082-7.198l0.877,0.233C469.004,332.533,469.25,333.511,470.182,333.96L470.182,333.96z M475.497,317.366
		c-2.195-1.594-3.363-3.041-3.498-4.348c-0.135-1.308,0.082-2.559,0.654-3.752c0.57-1.193,2.172-2.227,4.799-3.092
		c2.627-0.863,5.672-1.015,9.133-0.459c3.461,0.555,6.438,1.672,8.928,3.357c2.492,1.686,3.52,3.78,3.084,6.281
		c-0.438,2.507-2.115,4.137-5.035,4.91c-2.92,0.766-6.109,0.875-9.57,0.319C480.528,320.027,477.698,318.954,475.497,317.366
		L475.497,317.366z M484.493,317.695c3.463,0.556,6.287,0.609,8.482,0.169c2.189-0.438,3.477-0.998,3.852-1.68
		c0.377-0.68,0.502-1.4,0.379-2.162c-0.123-0.766-1.146-1.721-3.059-2.865c-1.92-1.148-4.604-2.004-8.066-2.56
		s-6.398-0.603-8.797-0.145c-2.402,0.449-3.729,1.401-3.98,2.843c-0.254,1.447,0.686,2.732,2.813,3.865
		C478.233,316.293,481.032,317.139,484.493,317.695L484.493,317.695z M475.141,292.649c-0.152-1.232-0.1-2.207,0.162-2.92
		c0.268-0.719,0.703-1.395,1.316-2.029c0.615-0.645,0.848-1.014,0.707-1.125c-0.15-0.104-0.773-0.202-1.891-0.287l0.061-0.727
		c1.115,0.082,2.305,0.174,3.576,0.269c1.266,0.095,2.922,0.12,4.965,0.08l-0.059,0.729c-3.721,0.603-5.914,1.194-6.576,1.775
		c-0.662,0.592-1.039,1.44-1.131,2.561c-0.092,1.121,0.939,2.25,3.094,3.389c2.152,1.142,4.898,1.837,8.248,2.09
		c3.35,0.252,6.303,0.012,8.865-0.723c2.563-0.739,3.895-1.76,4.002-3.074c0.107-1.313-0.121-2.264-0.689-2.847
		c-0.557-0.579-3.021-1.035-7.385-1.364c-0.828,0.137-1.285,0.686-1.365,1.662l-0.91-0.066l0.469-5.691l0.91,0.067
		c-0.082,0.972,0.332,1.594,1.225,1.854l6.545,0.495c1.713,1.5,2.527,3.441,2.428,5.832c-0.092,2.394-1.436,4.203-4.037,5.422
		c-2.604,1.225-5.854,1.689-9.764,1.393c-3.9-0.294-6.971-1.185-9.193-2.672C476.483,295.249,475.293,293.89,475.141,292.649
		L475.141,292.649z M500.977,274.256c0.01-1.074-0.342-1.713-1.055-1.912l-8.852-0.076l-11.938,3.561
		c-1.326,0.383-1.998,1.2-2.01,2.475l-0.91-0.008l0.055-6.152l0.912,0.008c-0.01,0.975,0.547,1.323,1.67,1.038l10.25-2.693
		l-10.189-3.886c-1.117-0.303-1.682,0.179-1.693,1.446l-0.912-0.007l0.049-5.27l0.91,0.008c-0.01,1.172,0.395,1.907,1.205,2.208
		l12.621,5.083l8.701,0.07c0.814-0.192,1.23-0.869,1.242-2.037l0.912,0.007l-0.055,6.144L500.977,274.256L500.977,274.256z"/>
</g>
</svg>
